<svg xmlns="http://www.w3.org/2000/svg" xmlns:xlink="http://www.w3.org/1999/xlink" contentStyleType="text/css" height="808px" preserveAspectRatio="none" style="width:1501px;height:808px;background:#FFFFFF;" version="1.1" viewBox="0 0 1501 808" width="1501px" zoomAndPan="magnify"><defs/><g><!--cluster s--><g id="cluster_s"><polygon fill="none" points="16,16,26,6,524,6,524,356.6,514,366.6,16,366.6,16,16" style="stroke:#181818;stroke-width:1.0;"/><line style="stroke:#181818;stroke-width:1.0;" x1="514" x2="524" y1="16" y2="6"/><line style="stroke:#181818;stroke-width:1.0;" x1="16" x2="514" y1="16" y2="16"/><line style="stroke:#181818;stroke-width:1.0;" x1="514" x2="514" y1="16" y2="366.6"/><text fill="#000000" font-family="sans-serif" font-size="14" font-weight="bold" lengthAdjust="spacing" textLength="104.542" x="213.729" y="31.9951">&#1054;&#1090;&#1087;&#1088;&#1072;&#1074;&#1080;&#1090;&#1077;&#1083;&#1100;</text></g><!--cluster sbl--><g id="cluster_sbl"><polygon fill="none" points="48,226.3,58,216.3,368,216.3,368,324.6,358,334.6,48,334.6,48,226.3" style="stroke:#181818;stroke-width:1.0;"/><line style="stroke:#181818;stroke-width:1.0;" x1="358" x2="368" y1="226.3" y2="216.3"/><line style="stroke:#181818;stroke-width:1.0;" x1="48" x2="358" y1="226.3" y2="226.3"/><line style="stroke:#181818;stroke-width:1.0;" x1="358" x2="358" y1="226.3" y2="334.6"/><text fill="#000000" font-family="sans-serif" font-size="14" font-weight="bold" lengthAdjust="spacing" textLength="130.6211" x="138.6895" y="242.2951">&#1054;.&#1041;&#1080;&#1079;&#1085;&#1077;&#1089;&#1051;&#1086;&#1075;&#1080;&#1082;&#1072;</text></g><!--cluster r--><g id="cluster_r"><polygon fill="none" points="526,455.6,536,445.6,1091,445.6,1091,781.19,1081,791.19,526,791.19,526,455.6" style="stroke:#181818;stroke-width:1.0;"/><line style="stroke:#181818;stroke-width:1.0;" x1="1081" x2="1091" y1="455.6" y2="445.6"/><line style="stroke:#181818;stroke-width:1.0;" x1="526" x2="1081" y1="455.6" y2="455.6"/><line style="stroke:#181818;stroke-width:1.0;" x1="1081" x2="1081" y1="455.6" y2="791.19"/><text fill="#000000" font-family="sans-serif" font-size="14" font-weight="bold" lengthAdjust="spacing" textLength="96.4893" x="756.2554" y="471.5951">&#1055;&#1086;&#1083;&#1091;&#1095;&#1072;&#1090;&#1077;&#1083;&#1100;</text></g><!--cluster rbl--><g id="cluster_rbl"><polygon fill="none" points="558,511.6,568,501.6,876,501.6,876,609.89,866,619.89,558,619.89,558,511.6" style="stroke:#181818;stroke-width:1.0;"/><line style="stroke:#181818;stroke-width:1.0;" x1="866" x2="876" y1="511.6" y2="501.6"/><line style="stroke:#181818;stroke-width:1.0;" x1="558" x2="866" y1="511.6" y2="511.6"/><line style="stroke:#181818;stroke-width:1.0;" x1="866" x2="866" y1="511.6" y2="619.89"/><text fill="#000000" font-family="sans-serif" font-size="14" font-weight="bold" lengthAdjust="spacing" textLength="130.4365" x="647.7817" y="527.5951">&#1055;.&#1041;&#1080;&#1079;&#1085;&#1077;&#1089;&#1051;&#1086;&#1075;&#1080;&#1082;&#1072;</text></g><!--cluster u--><g id="cluster_u"><polygon fill="none" points="951,16,961,6,1484,6,1484,356.6,1474,366.6,951,366.6,951,16" style="stroke:#181818;stroke-width:1.0;"/><line style="stroke:#181818;stroke-width:1.0;" x1="1474" x2="1484" y1="16" y2="6"/><line style="stroke:#181818;stroke-width:1.0;" x1="951" x2="1474" y1="16" y2="16"/><line style="stroke:#181818;stroke-width:1.0;" x1="1474" x2="1474" y1="16" y2="366.6"/><text fill="#000000" font-family="sans-serif" font-size="14" font-weight="bold" lengthAdjust="spacing" textLength="97.3027" x="1164.8486" y="31.9951">&#1056;&#1072;&#1079;&#1076;&#1072;&#1102;&#1097;&#1080;&#1081;</text></g><!--cluster ubl--><g id="cluster_ubl"><polygon fill="none" points="983,226.3,993,216.3,1297,216.3,1297,324.6,1287,334.6,983,334.6,983,226.3" style="stroke:#181818;stroke-width:1.0;"/><line style="stroke:#181818;stroke-width:1.0;" x1="1287" x2="1297" y1="226.3" y2="216.3"/><line style="stroke:#181818;stroke-width:1.0;" x1="983" x2="1287" y1="226.3" y2="226.3"/><line style="stroke:#181818;stroke-width:1.0;" x1="1287" x2="1287" y1="226.3" y2="334.6"/><text fill="#000000" font-family="sans-serif" font-size="14" font-weight="bold" lengthAdjust="spacing" textLength="128.9805" x="1071.5098" y="242.2951">&#1056;.&#1041;&#1080;&#1079;&#1085;&#1077;&#1089;&#1051;&#1086;&#1075;&#1080;&#1082;&#1072;</text></g><!--entity ssql--><g id="elem_ssql"><path d="M391.89,274.8 C391.89,264.8 450.0013,264.8 450.0013,264.8 C450.0013,264.8 508.1127,264.8 508.1127,274.8 L508.1127,300.0969 C508.1127,310.0969 450.0013,310.0969 450.0013,310.0969 C450.0013,310.0969 391.89,310.0969 391.89,300.0969 L391.89,274.8 " fill="#F1F1F1" style="stroke:#181818;stroke-width:0.5;"/><path d="M391.89,274.8 C391.89,284.8 450.0013,284.8 450.0013,284.8 C450.0013,284.8 508.1127,284.8 508.1127,274.8 " fill="none" style="stroke:#181818;stroke-width:0.5;"/><text fill="#000000" font-family="sans-serif" font-size="14" lengthAdjust="spacing" textLength="96.2227" x="401.89" y="301.7951">&#1054;.PostgreSQL</text></g><!--entity sorm--><g id="elem_sorm"><polygon fill="#F1F1F1" points="204.85,60,214.85,50,293.1459,50,293.1459,86.2969,283.1459,96.2969,204.85,96.2969,204.85,60" style="stroke:#181818;stroke-width:0.5;"/><line style="stroke:#181818;stroke-width:0.5;" x1="283.1459" x2="293.1459" y1="60" y2="50"/><line style="stroke:#181818;stroke-width:0.5;" x1="204.85" x2="283.1459" y1="60" y2="60"/><line style="stroke:#181818;stroke-width:0.5;" x1="283.1459" x2="283.1459" y1="60" y2="96.2969"/><text fill="#000000" font-family="sans-serif" font-size="14" lengthAdjust="spacing" textLength="48.2959" x="219.85" y="82.9951">&#1054;.ORM</text></g><!--entity ?.??????????????--><g id="elem_&#1054;.&#1042;&#1088;&#1077;&#1084;&#1077;&#1085;&#1085;&#1099;&#1077;&#1060;&#1072;&#1081;&#1083;&#1099;"><path d="M330.77,46 L371.77,46 A3.75,3.75 0 0 1 374.27,48.5 L381.27,67 L505.2241,67 A2.5,2.5 0 0 1 507.7241,69.5 L507.7241,97.7969 A2.5,2.5 0 0 1 505.2241,100.2969 L330.77,100.2969 A2.5,2.5 0 0 1 328.27,97.7969 L328.27,48.5 A2.5,2.5 0 0 1 330.77,46 " fill="#F1F1F1" style="stroke:#181818;stroke-width:0.5;"/><line style="stroke:#181818;stroke-width:0.5;" x1="328.27" x2="381.27" y1="67" y2="67"/><text fill="#000000" font-family="sans-serif" font-size="14" lengthAdjust="spacing" textLength="149.4541" x="338.27" y="86.9951">&#1054;.&#1042;&#1088;&#1077;&#1084;&#1077;&#1085;&#1085;&#1099;&#1077;&#1060;&#1072;&#1081;&#1083;&#1099;</text></g><!--entity sc--><g id="elem_sc"><rect fill="#F1F1F1" height="46.2969" rx="2.5" ry="2.5" style="stroke:#181818;stroke-width:0.5;" width="109.3779" x="91.31" y="264.3"/><rect fill="#F1F1F1" height="10" style="stroke:#181818;stroke-width:0.5;" width="15" x="180.6879" y="269.3"/><rect fill="#F1F1F1" height="2" style="stroke:#181818;stroke-width:0.5;" width="4" x="178.6879" y="271.3"/><rect fill="#F1F1F1" height="2" style="stroke:#181818;stroke-width:0.5;" width="4" x="178.6879" y="275.3"/><text fill="#000000" font-family="sans-serif" font-size="14" lengthAdjust="spacing" textLength="69.3779" x="106.31" y="297.2951">&#1054;.&#1050;&#1083;&#1080;&#1077;&#1085;&#1090;</text></g><!--entity ss--><g id="elem_ss"><rect fill="#F1F1F1" height="46.2969" rx="2.5" ry="2.5" style="stroke:#181818;stroke-width:0.5;" width="108.4961" x="235.75" y="264.3"/><rect fill="#F1F1F1" height="10" style="stroke:#181818;stroke-width:0.5;" width="15" x="324.2461" y="269.3"/><rect fill="#F1F1F1" height="2" style="stroke:#181818;stroke-width:0.5;" width="4" x="322.2461" y="271.3"/><rect fill="#F1F1F1" height="2" style="stroke:#181818;stroke-width:0.5;" width="4" x="322.2461" y="275.3"/><text fill="#000000" font-family="sans-serif" font-size="14" lengthAdjust="spacing" textLength="68.4961" x="250.75" y="297.2951">&#1054;.&#1057;&#1077;&#1088;&#1074;&#1077;&#1088;</text></g><!--entity rsql--><g id="elem_rsql"><path d="M895.13,735.39 C895.13,725.39 952.9952,725.39 952.9952,725.39 C952.9952,725.39 1010.8605,725.39 1010.8605,735.39 L1010.8605,760.6869 C1010.8605,770.6869 952.9952,770.6869 952.9952,770.6869 C952.9952,770.6869 895.13,770.6869 895.13,760.6869 L895.13,735.39 " fill="#F1F1F1" style="stroke:#181818;stroke-width:0.5;"/><path d="M895.13,735.39 C895.13,745.39 952.9952,745.39 952.9952,745.39 C952.9952,745.39 1010.8605,745.39 1010.8605,735.39 " fill="none" style="stroke:#181818;stroke-width:0.5;"/><text fill="#000000" font-family="sans-serif" font-size="14" lengthAdjust="spacing" textLength="95.7305" x="905.13" y="762.3851">&#1055;.PostgreSQL</text></g><!--entity rorm--><g id="elem_rorm"><polygon fill="#F1F1F1" points="987.1,559.6,997.1,549.6,1074.9037,549.6,1074.9037,585.8969,1064.9037,595.8969,987.1,595.8969,987.1,559.6" style="stroke:#181818;stroke-width:0.5;"/><line style="stroke:#181818;stroke-width:0.5;" x1="1064.9037" x2="1074.9037" y1="559.6" y2="549.6"/><line style="stroke:#181818;stroke-width:0.5;" x1="987.1" x2="1064.9037" y1="559.6" y2="559.6"/><line style="stroke:#181818;stroke-width:0.5;" x1="1064.9037" x2="1064.9037" y1="559.6" y2="595.8969"/><text fill="#000000" font-family="sans-serif" font-size="14" lengthAdjust="spacing" textLength="47.8037" x="1002.1" y="582.5951">&#1055;.ORM</text></g><!--entity rtemp--><g id="elem_rtemp"><path d="M549.02,720.89 L590.02,720.89 A3.75,3.75 0 0 1 592.52,723.39 L599.52,741.89 L722.9819,741.89 A2.5,2.5 0 0 1 725.4819,744.39 L725.4819,772.6869 A2.5,2.5 0 0 1 722.9819,775.1869 L549.02,775.1869 A2.5,2.5 0 0 1 546.52,772.6869 L546.52,723.39 A2.5,2.5 0 0 1 549.02,720.89 " fill="#F1F1F1" style="stroke:#181818;stroke-width:0.5;"/><line style="stroke:#181818;stroke-width:0.5;" x1="546.52" x2="599.52" y1="741.89" y2="741.89"/><text fill="#000000" font-family="sans-serif" font-size="14" lengthAdjust="spacing" textLength="148.9619" x="556.52" y="761.8851">&#1055;.&#1042;&#1088;&#1077;&#1084;&#1077;&#1085;&#1085;&#1099;&#1077;&#1060;&#1072;&#1081;&#1083;&#1099;</text></g><!--entity rc--><g id="elem_rc"><rect fill="#F1F1F1" height="46.2969" rx="2.5" ry="2.5" style="stroke:#181818;stroke-width:0.5;" width="108.8857" x="581.56" y="549.6"/><rect fill="#F1F1F1" height="10" style="stroke:#181818;stroke-width:0.5;" width="15" x="670.4457" y="554.6"/><rect fill="#F1F1F1" height="2" style="stroke:#181818;stroke-width:0.5;" width="4" x="668.4457" y="556.6"/><rect fill="#F1F1F1" height="2" style="stroke:#181818;stroke-width:0.5;" width="4" x="668.4457" y="560.6"/><text fill="#000000" font-family="sans-serif" font-size="14" lengthAdjust="spacing" textLength="68.8857" x="596.56" y="582.5951">&#1055;.&#1050;&#1083;&#1080;&#1077;&#1085;&#1090;</text></g><!--entity rs--><g id="elem_rs"><rect fill="#F1F1F1" height="46.2969" rx="2.5" ry="2.5" style="stroke:#181818;stroke-width:0.5;" width="108.0039" x="725" y="549.6"/><rect fill="#F1F1F1" height="10" style="stroke:#181818;stroke-width:0.5;" width="15" x="813.0039" y="554.6"/><rect fill="#F1F1F1" height="2" style="stroke:#181818;stroke-width:0.5;" width="4" x="811.0039" y="556.6"/><rect fill="#F1F1F1" height="2" style="stroke:#181818;stroke-width:0.5;" width="4" x="811.0039" y="560.6"/><text fill="#000000" font-family="sans-serif" font-size="14" lengthAdjust="spacing" textLength="68.0039" x="740" y="582.5951">&#1055;.&#1057;&#1077;&#1088;&#1074;&#1077;&#1088;</text></g><!--entity usql--><g id="elem_usql"><path d="M1324.18,274.8 C1324.18,264.8 1381.0028,264.8 1381.0028,264.8 C1381.0028,264.8 1437.8255,264.8 1437.8255,274.8 L1437.8255,300.0969 C1437.8255,310.0969 1381.0028,310.0969 1381.0028,310.0969 C1381.0028,310.0969 1324.18,310.0969 1324.18,300.0969 L1324.18,274.8 " fill="#F1F1F1" style="stroke:#181818;stroke-width:0.5;"/><path d="M1324.18,274.8 C1324.18,284.8 1381.0028,284.8 1381.0028,284.8 C1381.0028,284.8 1437.8255,284.8 1437.8255,274.8 " fill="none" style="stroke:#181818;stroke-width:0.5;"/><text fill="#000000" font-family="sans-serif" font-size="14" lengthAdjust="spacing" textLength="93.6455" x="1334.18" y="301.7951">&#1056;.PostgreSQL</text></g><!--entity uorm--><g id="elem_uorm"><polygon fill="#F1F1F1" points="1171.14,60,1181.14,50,1256.8588,50,1256.8588,86.2969,1246.8588,96.2969,1171.14,96.2969,1171.14,60" style="stroke:#181818;stroke-width:0.5;"/><line style="stroke:#181818;stroke-width:0.5;" x1="1246.8588" x2="1256.8588" y1="60" y2="50"/><line style="stroke:#181818;stroke-width:0.5;" x1="1171.14" x2="1246.8588" y1="60" y2="60"/><line style="stroke:#181818;stroke-width:0.5;" x1="1246.8588" x2="1246.8588" y1="60" y2="96.2969"/><text fill="#000000" font-family="sans-serif" font-size="14" lengthAdjust="spacing" textLength="45.7188" x="1186.14" y="82.9951">&#1056;.ORM</text></g><!--entity ?.??????????????--><g id="elem_&#1056;.&#1042;&#1088;&#1077;&#1084;&#1077;&#1085;&#1085;&#1099;&#1077;&#1060;&#1072;&#1081;&#1083;&#1099;"><path d="M1294.06,46 L1335.06,46 A3.75,3.75 0 0 1 1337.56,48.5 L1344.56,67 L1465.937,67 A2.5,2.5 0 0 1 1468.437,69.5 L1468.437,97.7969 A2.5,2.5 0 0 1 1465.937,100.2969 L1294.06,100.2969 A2.5,2.5 0 0 1 1291.56,97.7969 L1291.56,48.5 A2.5,2.5 0 0 1 1294.06,46 " fill="#F1F1F1" style="stroke:#181818;stroke-width:0.5;"/><line style="stroke:#181818;stroke-width:0.5;" x1="1291.56" x2="1344.56" y1="67" y2="67"/><text fill="#000000" font-family="sans-serif" font-size="14" lengthAdjust="spacing" textLength="146.877" x="1301.56" y="86.9951">&#1056;.&#1042;&#1088;&#1077;&#1084;&#1077;&#1085;&#1085;&#1099;&#1077;&#1060;&#1072;&#1081;&#1083;&#1099;</text></g><!--entity uc--><g id="elem_uc"><rect fill="#F1F1F1" height="46.2969" rx="2.5" ry="2.5" style="stroke:#181818;stroke-width:0.5;" width="106.8008" x="1006.6" y="264.3"/><rect fill="#F1F1F1" height="10" style="stroke:#181818;stroke-width:0.5;" width="15" x="1093.4008" y="269.3"/><rect fill="#F1F1F1" height="2" style="stroke:#181818;stroke-width:0.5;" width="4" x="1091.4008" y="271.3"/><rect fill="#F1F1F1" height="2" style="stroke:#181818;stroke-width:0.5;" width="4" x="1091.4008" y="275.3"/><text fill="#000000" font-family="sans-serif" font-size="14" lengthAdjust="spacing" textLength="66.8008" x="1021.6" y="297.2951">&#1056;.&#1050;&#1083;&#1080;&#1077;&#1085;&#1090;</text></g><!--entity us--><g id="elem_us"><rect fill="#F1F1F1" height="46.2969" rx="2.5" ry="2.5" style="stroke:#181818;stroke-width:0.5;" width="105.9189" x="1148.04" y="264.3"/><rect fill="#F1F1F1" height="10" style="stroke:#181818;stroke-width:0.5;" width="15" x="1233.9589" y="269.3"/><rect fill="#F1F1F1" height="2" style="stroke:#181818;stroke-width:0.5;" width="4" x="1231.9589" y="271.3"/><rect fill="#F1F1F1" height="2" style="stroke:#181818;stroke-width:0.5;" width="4" x="1231.9589" y="275.3"/><text fill="#000000" font-family="sans-serif" font-size="14" lengthAdjust="spacing" textLength="65.9189" x="1163.04" y="297.2951">&#1056;.&#1057;&#1077;&#1088;&#1074;&#1077;&#1088;</text></g><!--entity DHT--><g id="elem_DHT"><polygon fill="#F1F1F1" points="702.07,60,712.07,50,771.9294,50,771.9294,86.2969,761.9294,96.2969,702.07,96.2969,702.07,60" style="stroke:#181818;stroke-width:0.5;"/><line style="stroke:#181818;stroke-width:0.5;" x1="761.9294" x2="771.9294" y1="60" y2="50"/><line style="stroke:#181818;stroke-width:0.5;" x1="702.07" x2="761.9294" y1="60" y2="60"/><line style="stroke:#181818;stroke-width:0.5;" x1="761.9294" x2="761.9294" y1="60" y2="96.2969"/><text fill="#000000" font-family="sans-serif" font-size="14" lengthAdjust="spacing" textLength="29.8594" x="717.07" y="82.9951">DHT</text></g><!--link rc to DHT--><g id="link_rc_DHT"><path d="M649.68,549.57 C665.7,522.4 691.62,474.43 704,429.6 C737.73,307.43 738.7354,159.6191 737.7354,102.6891 " fill="none" id="rc-to-DHT" style="stroke:#181818;stroke-width:1.0;"/><polygon fill="#181818" points="737.63,96.69,733.7887,105.7589,737.7178,101.6892,741.7874,105.6184,737.63,96.69" style="stroke:#181818;stroke-width:1.0;"/><text fill="#000000" font-family="sans-serif" font-size="13" lengthAdjust="spacing" textLength="86.125" x="737" y="292.0169">&#1055;&#1086;&#1080;&#1089;&#1082; &#1087;&#1080;&#1088;&#1086;&#1074;</text></g><!--link rorm to rsql--><g id="link_rorm_rsql"><path d="M1020.96,596.05 C1005.94,629.41 980.2619,686.4683 965.3419,719.6283 " fill="none" id="rorm-to-rsql" style="stroke:#181818;stroke-width:1.0;"/><polygon fill="#181818" points="962.88,725.1,970.2206,718.5338,964.9316,720.5403,962.9251,715.2512,962.88,725.1" style="stroke:#181818;stroke-width:1.0;"/><text fill="#000000" font-family="sans-serif" font-size="13" lengthAdjust="spacing" textLength="120.4087" x="999" y="671.9569">&#1054;&#1073;&#1088;&#1072;&#1097;&#1072;&#1077;&#1090;&#1089;&#1103; &#1082; &#1041;&#1044;</text></g><!--reverse link rorm to rbl--><g id="link_rorm_rbl"><path d="M980.94,572.74 C958.235,572.74 936.5775,572.74 913.6488,572.74 C902.1844,572.74 891.9022,572.74 884.0123,572.74 C882.0399,572.74 880.2169,572.74 878.5624,572.74 C877.7352,572.74 876.95,572.74 876.2094,572.74 " fill="none" id="rorm-backto-rbl" style="stroke:#181818;stroke-width:1.0;"/><polygon fill="#181818" points="986.94,572.74,977.94,568.74,981.94,572.74,977.94,576.74,986.94,572.74" style="stroke:#181818;stroke-width:1.0;"/><text fill="#000000" font-family="sans-serif" font-size="13" lengthAdjust="spacing" textLength="82.3862" x="886.73" y="550.8069">&#1057;&#1086;&#1093;&#1088;&#1072;&#1085;&#1077;&#1085;&#1080;&#1077;</text><text fill="#000000" font-family="sans-serif" font-size="13" lengthAdjust="spacing" textLength="74.3311" x="890.7576" y="565.9397">&#1076;&#1086;&#1082;&#1091;&#1084;&#1077;&#1085;&#1090;&#1072;</text></g><!--link rc to rtemp--><g id="link_rc_rtemp"><path d="M636,596.05 C636,627.95 636,701.52 636,735.57 " fill="none" id="rc-to-rtemp" style="stroke:#181818;stroke-width:1.0;"/><polygon fill="#181818" points="636,741.57,640,732.57,636,736.57,632,732.57,636,741.57" style="stroke:#181818;stroke-width:1.0;"/><text fill="#000000" font-family="sans-serif" font-size="13" lengthAdjust="spacing" textLength="65.7109" x="650.6919" y="656.9569">&#1055;&#1088;&#1086;&#1074;&#1077;&#1088;&#1082;&#1072;</text><text fill="#000000" font-family="sans-serif" font-size="13" lengthAdjust="spacing" textLength="93.0947" x="637" y="672.0897">&#1079;&#1072;&#1075;&#1088;&#1091;&#1078;&#1072;&#1077;&#1084;&#1099;&#1093;</text><text fill="#000000" font-family="sans-serif" font-size="13" lengthAdjust="spacing" textLength="51.4541" x="657.8203" y="687.2225">&#1092;&#1072;&#1081;&#1083;&#1086;&#1074;</text></g><!--reverse link DHT to ss--><g id="link_DHT_ss"><path d="M695.7744,77.2117 C654.1244,81.6917 590.58,93.85 544,130.3 C518.9,149.93 535.21,175.72 508,192.3 C477.6,210.83 379,182.79 348,200.3 C323.35,214.22 307.12,243.47 298.25,264.01 " fill="none" id="DHT-backto-ss" style="stroke:#181818;stroke-width:1.0;"/><polygon fill="#181818" points="701.74,76.57,692.3638,73.5555,696.7687,77.1047,693.2194,81.5096,701.74,76.57" style="stroke:#181818;stroke-width:1.0;"/><text fill="#000000" font-family="sans-serif" font-size="13" lengthAdjust="spacing" textLength="165.2168" x="545" y="165.8669">&#1057;&#1090;&#1072;&#1085;&#1086;&#1074;&#1080;&#1090;&#1089;&#1103; &#1080;&#1089;&#1090;&#1086;&#1095;&#1085;&#1080;&#1082;&#1086;&#1084;</text></g><!--link sorm to ssql--><g id="link_sorm_ssql"><path d="M293.54,95.58 C309.94,104.81 327.93,116.64 342,130.3 C365.53,153.14 363.5,165.22 382,192.3 C399.17,217.44 416.1739,240.8547 430.1639,259.7847 " fill="none" id="sorm-to-ssql" style="stroke:#181818;stroke-width:1.0;"/><polygon fill="#181818" points="433.73,264.61,431.5978,254.9947,430.7583,260.5889,425.1641,259.7495,433.73,264.61" style="stroke:#181818;stroke-width:1.0;"/><text fill="#000000" font-family="sans-serif" font-size="13" lengthAdjust="spacing" textLength="120.4087" x="383" y="165.8669">&#1054;&#1073;&#1088;&#1072;&#1097;&#1072;&#1077;&#1090;&#1089;&#1103; &#1082; &#1041;&#1044;</text></g><!--reverse link sorm to sbl--><g id="link_sorm_sbl"><path d="M251.3986,102.424 C252.6186,129.654 249.67,168.98 222,192.3 C196.98,213.38 99.94,179.12 75,200.3 C71.3225,203.4225 68.2623,207.0809 65.7233,211.0961 C65.0885,212.0999 64.4863,213.126 63.9152,214.1716 C63.6296,214.6944 63.3518,215.2221 63.0816,215.7543 C63.014,215.8873 62.947,216.0207 62.8803,216.1543 " fill="none" id="sorm-backto-sbl" style="stroke:#181818;stroke-width:1.0;"/><polygon fill="#181818" points="251.13,96.43,247.5368,105.6,251.3538,101.425,255.5288,105.2419,251.13,96.43" style="stroke:#181818;stroke-width:1.0;"/><text fill="#000000" font-family="sans-serif" font-size="13" lengthAdjust="spacing" textLength="82.3862" x="251" y="158.3669">&#1057;&#1086;&#1093;&#1088;&#1072;&#1085;&#1077;&#1085;&#1080;&#1077;</text><text fill="#000000" font-family="sans-serif" font-size="13" lengthAdjust="spacing" textLength="74.3311" x="255.0276" y="173.4997">&#1076;&#1086;&#1082;&#1091;&#1084;&#1077;&#1085;&#1090;&#1072;</text></g><!--link sbl to sorm--><g id="link_sbl_sorm"><path d="M47.8991,254.8897 C47.5744,253.2519 47.2545,251.5678 46.9426,249.8416 C45.6948,242.9369 44.575,235.3594 43.7925,227.385 C40.6625,195.4875 42.93,157.24 64,130.3 C97.08,87.99 155.0905,76.9952 198.4305,74.4252 " fill="none" id="sbl-to-sorm" style="stroke:#181818;stroke-width:1.0;"/><polygon fill="#181818" points="204.42,74.07,195.199,70.6098,199.4288,74.366,195.6726,78.5957,204.42,74.07" style="stroke:#181818;stroke-width:1.0;"/><text fill="#000000" font-family="sans-serif" font-size="13" lengthAdjust="spacing" textLength="102.4321" x="90.0479" y="143.3669">&#1060;&#1086;&#1088;&#1084;&#1080;&#1088;&#1086;&#1074;&#1072;&#1085;&#1080;&#1077;</text><text fill="#000000" font-family="sans-serif" font-size="13" lengthAdjust="spacing" textLength="152.5278" x="65" y="158.4997">&#1079;&#1072;&#1075;&#1086;&#1083;&#1086;&#1074;&#1086;&#1095;&#1085;&#1086;&#1075;&#1086; &#1092;&#1072;&#1081;&#1083;&#1072;,</text><text fill="#000000" font-family="sans-serif" font-size="13" lengthAdjust="spacing" textLength="122.8525" x="79.8376" y="173.6325">&#1089;&#1086;&#1089;&#1090;&#1072;&#1074;&#1085;&#1099;&#1093; &#1095;&#1072;&#1089;&#1090;&#1077;&#1081;</text><text fill="#000000" font-family="sans-serif" font-size="13" lengthAdjust="spacing" textLength="86.9121" x="97.8079" y="188.7653">&#1080; &#1076;&#1086;&#1082;&#1091;&#1084;&#1077;&#1085;&#1090;&#1072;</text></g><!--reverse link DHT to us--><g id="link_DHT_us"><path d="M746.3619,102.3039 C757.4019,134.9539 775.75,186.57 784,192.3 C799.83,203.31 1113.69,191.81 1131,200.3 C1158.34,213.7 1178.6,243.38 1190.1,264.13 " fill="none" id="DHT-backto-us" style="stroke:#181818;stroke-width:1.0;"/><polygon fill="#181818" points="744.44,96.62,743.5336,106.4271,746.0416,101.3566,751.1121,103.8645,744.44,96.62" style="stroke:#181818;stroke-width:1.0;"/><text fill="#000000" font-family="sans-serif" font-size="13" lengthAdjust="spacing" textLength="165.2168" x="785" y="165.8669">&#1057;&#1090;&#1072;&#1085;&#1086;&#1074;&#1080;&#1090;&#1089;&#1103; &#1080;&#1089;&#1090;&#1086;&#1095;&#1085;&#1080;&#1082;&#1086;&#1084;</text></g><!--link uorm to usql--><g id="link_uorm_usql"><path d="M1257.14,93.35 C1274.31,102.61 1293.21,115.05 1307,130.3 C1343.42,170.58 1363.6124,226.2111 1373.3224,258.7111 " fill="none" id="uorm-to-usql" style="stroke:#181818;stroke-width:1.0;"/><polygon fill="#181818" points="1375.04,264.46,1376.2962,254.6916,1373.6087,259.6692,1368.631,256.9817,1375.04,264.46" style="stroke:#181818;stroke-width:1.0;"/><text fill="#000000" font-family="sans-serif" font-size="13" lengthAdjust="spacing" textLength="120.4087" x="1346" y="165.8669">&#1054;&#1073;&#1088;&#1072;&#1097;&#1072;&#1077;&#1090;&#1089;&#1103; &#1082; &#1041;&#1044;</text></g><!--reverse link uorm to ubl--><g id="link_uorm_ubl"><path d="M1206.0517,102.2172 C1199.7917,128.5372 1195.76,166.26 1219,192.3 C1234.28,209.42 1253.29,184.58 1270,200.3 C1273.515,203.605 1276.4527,207.4009 1278.9018,211.517 C1279.5141,212.546 1280.0959,213.595 1280.6485,214.6613 C1280.9248,215.1945 1281.1939,215.732 1281.4558,216.2735 " fill="none" id="uorm-backto-ubl" style="stroke:#181818;stroke-width:1.0;"/><polygon fill="#181818" points="1207.44,96.38,1201.4661,104.2102,1206.2831,101.2443,1209.249,106.0613,1207.44,96.38" style="stroke:#181818;stroke-width:1.0;"/><text fill="#000000" font-family="sans-serif" font-size="13" lengthAdjust="spacing" textLength="82.3862" x="1220" y="158.3669">&#1057;&#1086;&#1093;&#1088;&#1072;&#1085;&#1077;&#1085;&#1080;&#1077;</text><text fill="#000000" font-family="sans-serif" font-size="13" lengthAdjust="spacing" textLength="74.3311" x="1224.0276" y="173.4997">&#1076;&#1086;&#1082;&#1091;&#1084;&#1077;&#1085;&#1090;&#1072;</text></g><!--link ubl to uorm--><g id="link_ubl_uorm"><path d="M1282.2315,216.0245 C1282.1644,215.8915 1282.0968,215.7587 1282.0288,215.6263 C1281.7566,215.0964 1281.4767,214.5711 1281.1889,214.0509 C1280.6133,213.0104 1280.0063,211.9899 1279.3661,210.9924 C1276.8056,207.002 1273.7163,203.3775 1270,200.3 C1246.8,181.09 1019.98,213.91 999,192.3 C979.8,172.53 982.16,152.11 999,130.3 C1019.81,103.36 1108.1738,87.6719 1164.7538,80.0419 " fill="none" id="ubl-to-uorm" style="stroke:#181818;stroke-width:1.0;"/><polygon fill="#181818" points="1170.7,79.24,1161.2462,76.4787,1165.7449,79.9082,1162.3153,84.4069,1170.7,79.24" style="stroke:#181818;stroke-width:1.0;"/><text fill="#000000" font-family="sans-serif" font-size="13" lengthAdjust="spacing" textLength="178.3945" x="1000" y="158.3669">&#1092;&#1086;&#1088;&#1084;&#1080;&#1088;&#1086;&#1074;&#1072;&#1085;&#1080;&#1077; &#1089;&#1086;&#1089;&#1090;&#1072;&#1074;&#1085;&#1099;&#1093;</text><text fill="#000000" font-family="sans-serif" font-size="13" lengthAdjust="spacing" textLength="137.8584" x="1020.2681" y="173.4997">&#1095;&#1072;&#1089;&#1090;&#1077;&#1081; &#1080; &#1076;&#1086;&#1082;&#1091;&#1084;&#1077;&#1085;&#1090;&#1072;</text></g><!--link ss to rc--><g id="link_ss_rc"><path d="M301.56,310.96 C317.93,341.07 350.31,394.69 390,429.6 C449.64,482.04 526.1201,522.2088 578.7101,546.6788 " fill="none" id="ss-to-rc" style="stroke:#181818;stroke-width:1.0;"/><polygon fill="#181818" points="584.15,549.21,577.6775,541.7866,579.6167,547.1007,574.3026,549.0398,584.15,549.21" style="stroke:#181818;stroke-width:1.0;"/><text fill="#000000" font-family="sans-serif" font-size="13" lengthAdjust="spacing" textLength="66.0029" x="408.2275" y="395.6669">&#1054;&#1090;&#1087;&#1088;&#1072;&#1074;&#1082;&#1072;</text><text fill="#000000" font-family="sans-serif" font-size="13" lengthAdjust="spacing" textLength="100.458" x="391" y="410.7997">&#1079;&#1072;&#1075;&#1086;&#1083;&#1086;&#1074;&#1086;&#1095;&#1085;&#1086;&#1075;&#1086;</text><text fill="#000000" font-family="sans-serif" font-size="13" lengthAdjust="spacing" textLength="95.2085" x="393.6248" y="425.9325">&#1092;&#1072;&#1081;&#1083;&#1072; &#1087;&#1086; http</text></g><!--link ss to rc--><g id="link_ss_rc"><path d="M298.27,310.87 C307.14,331.39 323.38,360.63 348,374.6 C376.65,390.85 467,366.98 496,382.6 C565.07,419.78 606.9187,502.0642 624.7187,543.6442 " fill="none" id="ss-to-rc-1" style="stroke:#181818;stroke-width:1.0;"/><polygon fill="#181818" points="627.08,549.16,627.2153,539.3121,625.1123,544.5635,619.8609,542.4604,627.08,549.16" style="stroke:#181818;stroke-width:1.0;"/><text fill="#000000" font-family="sans-serif" font-size="13" lengthAdjust="spacing" textLength="142.6636" x="552.4539" y="395.6669">&#1055;&#1077;&#1088;&#1077;&#1076;&#1072;&#1095;&#1072; &#1089;&#1086;&#1089;&#1090;&#1072;&#1074;&#1085;&#1099;&#1093;</text><text fill="#000000" font-family="sans-serif" font-size="13" lengthAdjust="spacing" textLength="143.5713" x="552" y="410.7997">&#1095;&#1072;&#1089;&#1090;&#1077;&#1081; &#1087;&#1086; &#1087;&#1088;&#1086;&#1090;&#1086;&#1082;&#1086;&#1083;&#1091;</text><text fill="#000000" font-family="sans-serif" font-size="13" lengthAdjust="spacing" textLength="62.0356" x="592.7678" y="425.9325">bittorrent</text></g><!--link us to rc--><g id="link_us_rc"><path d="M1189.25,310.79 C1177.39,330.97 1157.11,359.7 1131,374.6 C987.36,456.54 926.63,405.68 763,429.6 C750.56,431.41 717.28,430.36 707,437.6 C668.74,464.5 650.9617,512.7968 642.7017,543.4368 " fill="none" id="us-to-rc" style="stroke:#181818;stroke-width:1.0;"/><polygon fill="#181818" points="641.14,549.23,647.3447,541.5814,642.4414,544.4023,639.6205,539.4991,641.14,549.23" style="stroke:#181818;stroke-width:1.0;"/><text fill="#000000" font-family="sans-serif" font-size="13" lengthAdjust="spacing" textLength="142.6636" x="1115.4539" y="395.6669">&#1055;&#1077;&#1088;&#1077;&#1076;&#1072;&#1095;&#1072; &#1089;&#1086;&#1089;&#1090;&#1072;&#1074;&#1085;&#1099;&#1093;</text><text fill="#000000" font-family="sans-serif" font-size="13" lengthAdjust="spacing" textLength="143.5713" x="1115" y="410.7997">&#1095;&#1072;&#1089;&#1090;&#1077;&#1081; &#1087;&#1086; &#1087;&#1088;&#1086;&#1090;&#1086;&#1082;&#1086;&#1083;&#1091;</text><text fill="#000000" font-family="sans-serif" font-size="13" lengthAdjust="spacing" textLength="62.0356" x="1155.7678" y="425.9325">bittorrent</text></g><!--SRC=[jPJDRjD04CVFsQVO1o1z05Hnui01nEUDSCWNRQNK3cklE5ILafG8eI1G4IUGQaVg0vYKa6_t5MRVY9dPEcoS4AL8N19xPsVd__lFh3s_LfTmOJfmRLgGm036-3o4cVaeou4CJaIXLWxBbN90s_QU-45ueEhFdpxaQF2c8GgUFMBlyRD7lEYhup-BS0vZ6C42XgODto65AtoVGi8xAuqJ8GilQTitc65W20lJUSMnQXRfOseBTU6lZGGOEHM5rtwZLbTSumjk6CASql607lvV8ie48NhYL5Wf4TQUcJFp7X8NKAq0HZb0vG166Q1o0AEjW2e3ZDO1LJMBv05L3Z3Q2iWPOVsukIIDCJI2dyZvoNp0cXFQebSuunodTZZZZ5CxdF5MJfrnnkkSkff5yfmwnnblvqG-2tZ_mGiXL5KMY_VeMTwrpHsZhgc4QtneuUj0KFFaVb4tYv9xHXilu0UDEVgIe8wEQPlFahBEuQlWFVj5TNHm61QfTvJGXzHq-MOiM1MYbJmqDuMfERDASPmIrbFpttgeYRl1ggmGnaQdC6-4vroP5cR-8W4mDptJBNdcdQLasI8898bUmlMf09PExUMqcf4MbrCSvmNt8OMv21pWO0VWm0ApRBgCj-6bxIWnAtE9QIqCttZFwJQLaUdkyReLJCEJoYLrSWSjQ6EipQG3QhtfIhwgRRwi4pneB3V84FfVpTAEMNe7ixHhbhwTMTgQTLC6kJUQ9TSzG5yS4-HVFA21eRchCeFpANU6RbC7dC5BwEAayZ0Ccwl7HJozG_wSe9GTDD8vh20bpzbj_EwMlCfH6FfArRsGc_PVA_m6]--></g></svg>