<svg xmlns="http://www.w3.org/2000/svg" xmlns:xlink="http://www.w3.org/1999/xlink" contentStyleType="text/css" height="248px" preserveAspectRatio="none" style="width:567px;height:248px;background:#FFFFFF;" version="1.1" viewBox="0 0 567 248" width="567px" zoomAndPan="magnify"><defs/><g><!--entity s--><g id="elem_s"><rect fill="#F1F1F1" height="46.2969" rx="2.5" ry="2.5" style="stroke:#181818;stroke-width:0.5;" width="137.1113" x="7" y="160.3"/><rect fill="#F1F1F1" height="10" style="stroke:#181818;stroke-width:0.5;" width="15" x="124.1113" y="165.3"/><rect fill="#F1F1F1" height="2" style="stroke:#181818;stroke-width:0.5;" width="4" x="122.1113" y="167.3"/><rect fill="#F1F1F1" height="2" style="stroke:#181818;stroke-width:0.5;" width="4" x="122.1113" y="171.3"/><text fill="#000000" font-family="sans-serif" font-size="14" lengthAdjust="spacing" textLength="97.1113" x="22" y="193.2951">&#1054;&#1090;&#1087;&#1088;&#1072;&#1074;&#1080;&#1090;&#1077;&#1083;&#1100;</text></g><!--entity r--><g id="elem_r"><rect fill="#F1F1F1" height="46.2969" rx="2.5" ry="2.5" style="stroke:#181818;stroke-width:0.5;" width="127.1445" x="350.98" y="160.3"/><rect fill="#F1F1F1" height="10" style="stroke:#181818;stroke-width:0.5;" width="15" x="458.1245" y="165.3"/><rect fill="#F1F1F1" height="2" style="stroke:#181818;stroke-width:0.5;" width="4" x="456.1245" y="167.3"/><rect fill="#F1F1F1" height="2" style="stroke:#181818;stroke-width:0.5;" width="4" x="456.1245" y="171.3"/><text fill="#000000" font-family="sans-serif" font-size="14" lengthAdjust="spacing" textLength="87.1445" x="365.98" y="193.2951">&#1055;&#1086;&#1083;&#1091;&#1095;&#1072;&#1090;&#1077;&#1083;&#1100;</text></g><!--entity u--><g id="elem_u"><rect fill="#F1F1F1" height="46.2969" rx="2.5" ry="2.5" style="stroke:#181818;stroke-width:0.5;" width="125.8936" x="351.61" y="7"/><rect fill="#F1F1F1" height="10" style="stroke:#181818;stroke-width:0.5;" width="15" x="457.5036" y="12"/><rect fill="#F1F1F1" height="2" style="stroke:#181818;stroke-width:0.5;" width="4" x="455.5036" y="14"/><rect fill="#F1F1F1" height="2" style="stroke:#181818;stroke-width:0.5;" width="4" x="455.5036" y="18"/><text fill="#000000" font-family="sans-serif" font-size="14" lengthAdjust="spacing" textLength="85.8936" x="366.61" y="39.9951">&#1056;&#1072;&#1079;&#1076;&#1072;&#1102;&#1097;&#1080;&#1081;</text></g><!--entity DHT--><g id="elem_DHT"><ellipse cx="141.56" cy="30.15" fill="#F1F1F1" rx="8" ry="8" style="stroke:#181818;stroke-width:0.5;"/><text fill="#000000" font-family="sans-serif" font-size="14" lengthAdjust="spacing" textLength="29.8594" x="126.6303" y="60.1451">DHT</text></g><!--reverse link DHT to s--><g id="link_DHT_s"><path d="M135.6097,44.789 C125.7797,67.309 100.35,125.6 85.38,159.93 " fill="none" id="DHT-backto-s" style="stroke:#181818;stroke-width:1.0;"/><polygon fill="#181818" points="138.01,39.29,130.7436,45.9382,136.0097,43.8725,138.0755,49.1386,138.01,39.29" style="stroke:#181818;stroke-width:1.0;"/><text fill="#000000" font-family="sans-serif" font-size="13" lengthAdjust="spacing" textLength="79.7202" x="120.382" y="103.8669">&#1057;&#1090;&#1072;&#1085;&#1086;&#1074;&#1080;&#1090;&#1089;&#1103;</text><text fill="#000000" font-family="sans-serif" font-size="13" lengthAdjust="spacing" textLength="81.3643" x="119.56" y="118.9997">&#1080;&#1089;&#1090;&#1086;&#1095;&#1085;&#1080;&#1082;&#1086;&#1084;</text></g><!--reverse link DHT to u--><g id="link_DHT_u"><path d="M156.95,30.15 C188.08,30.15 283.68,30.15 351.26,30.15 " fill="none" id="DHT-backto-u" style="stroke:#181818;stroke-width:1.0;"/><polygon fill="#181818" points="150.95,30.15,159.95,34.15,155.95,30.15,159.95,26.15,150.95,30.15" style="stroke:#181818;stroke-width:1.0;"/><text fill="#000000" font-family="sans-serif" font-size="13" lengthAdjust="spacing" textLength="165.2168" x="168.58" y="23.2169">&#1057;&#1090;&#1072;&#1085;&#1086;&#1074;&#1080;&#1090;&#1089;&#1103; &#1080;&#1089;&#1090;&#1086;&#1095;&#1085;&#1080;&#1082;&#1086;&#1084;</text></g><!--reverse link DHT to r--><g id="link_DHT_r"><path d="M156.1981,39.2681 C191.0281,58.5681 308.85,123.87 373.77,159.85 " fill="none" id="DHT-backto-r" style="stroke:#181818;stroke-width:1.0;"/><polygon fill="#181818" points="150.95,36.36,156.8835,44.2209,155.3234,38.7834,160.7609,37.2234,150.95,36.36" style="stroke:#181818;stroke-width:1.0;"/><text fill="#000000" font-family="sans-serif" font-size="13" lengthAdjust="spacing" textLength="41.1772" x="319.56" y="103.8669">&#1055;&#1086;&#1080;&#1089;&#1082;</text><text fill="#000000" font-family="sans-serif" font-size="13" lengthAdjust="spacing" textLength="40.8154" x="319.7409" y="118.9997">&#1087;&#1080;&#1088;&#1086;&#1074;</text></g><!--link s to r--><g id="link_s_r"><path d="M144.57,183.45 C204.87,183.45 285.73,183.45 344.52,183.45 " fill="none" id="s-to-r" style="stroke:#181818;stroke-width:1.0;"/><polygon fill="#181818" points="350.52,183.45,341.52,179.45,345.52,183.45,341.52,187.45,350.52,183.45" style="stroke:#181818;stroke-width:1.0;"/><text fill="#000000" font-family="sans-serif" font-size="13" lengthAdjust="spacing" textLength="170.5933" x="162.55" y="161.5169">&#1054;&#1090;&#1087;&#1088;&#1072;&#1074;&#1082;&#1072; &#1079;&#1072;&#1075;&#1086;&#1083;&#1086;&#1074;&#1086;&#1095;&#1085;&#1086;&#1075;&#1086;</text><text fill="#000000" font-family="sans-serif" font-size="13" lengthAdjust="spacing" textLength="95.2085" x="200.2424" y="176.6497">&#1092;&#1072;&#1081;&#1083;&#1072; &#1087;&#1086; http</text></g><!--link s to r--><g id="link_s_r"><path d="M112.23,207.05 C130.37,217.34 153.04,228.23 175.05,233.45 C206.4,240.89 288.77,241.21 320.05,233.45 C341.13,228.22 357.5306,220.3995 374.7206,210.1195 " fill="none" id="s-to-r-1" style="stroke:#181818;stroke-width:1.0;"/><polygon fill="#181818" points="379.87,207.04,370.0928,208.2263,375.5788,209.6062,374.1988,215.0922,379.87,207.04" style="stroke:#181818;stroke-width:1.0;"/><text fill="#000000" font-family="sans-serif" font-size="13" lengthAdjust="spacing" textLength="142.6636" x="176.5039" y="199.5169">&#1055;&#1077;&#1088;&#1077;&#1076;&#1072;&#1095;&#1072; &#1089;&#1086;&#1089;&#1090;&#1072;&#1074;&#1085;&#1099;&#1093;</text><text fill="#000000" font-family="sans-serif" font-size="13" lengthAdjust="spacing" textLength="143.5713" x="176.05" y="214.6497">&#1095;&#1072;&#1089;&#1090;&#1077;&#1081; &#1087;&#1086; &#1087;&#1088;&#1086;&#1090;&#1086;&#1082;&#1086;&#1083;&#1091;</text><text fill="#000000" font-family="sans-serif" font-size="13" lengthAdjust="spacing" textLength="62.0356" x="216.8178" y="229.7825">bittorrent</text></g><!--link u to r--><g id="link_u_r"><path d="M414.56,53.48 C414.56,82.08 414.56,125.39 414.56,154.03 " fill="none" id="u-to-r" style="stroke:#181818;stroke-width:1.0;"/><polygon fill="#181818" points="414.56,160.03,418.56,151.03,414.56,155.03,410.56,151.03,414.56,160.03" style="stroke:#181818;stroke-width:1.0;"/><text fill="#000000" font-family="sans-serif" font-size="13" lengthAdjust="spacing" textLength="142.6636" x="416.0139" y="96.3669">&#1055;&#1077;&#1088;&#1077;&#1076;&#1072;&#1095;&#1072; &#1089;&#1086;&#1089;&#1090;&#1072;&#1074;&#1085;&#1099;&#1093;</text><text fill="#000000" font-family="sans-serif" font-size="13" lengthAdjust="spacing" textLength="143.5713" x="415.56" y="111.4997">&#1095;&#1072;&#1089;&#1090;&#1077;&#1081; &#1087;&#1086; &#1087;&#1088;&#1086;&#1090;&#1086;&#1082;&#1086;&#1083;&#1091;</text><text fill="#000000" font-family="sans-serif" font-size="13" lengthAdjust="spacing" textLength="62.0356" x="456.3278" y="126.6325">bittorrent</text></g><!--SRC=[jL0xJiD05EnzYdS1Nu0Y5GK7e8ifG0a22MsYzLgqCHyX188R4BZ12h283LvVOTwDChjf4WdHqRtTUJFpPiPuqIiCke37ErQS6tphuv4Sbr9cOomH-BxME_WTp19x9USBdqIUz1uhj0cfigoKl9hd8za_E9GzmHkP7ZsLaeFM-bmOJZN_0vLxSZkYFrab-SNqrFr9bL-PTjSodiqrT3GQE2sYGZfi93OkRAVku8L1F3vYsEIr4G_nfp1wGwmbmhK1GSwScsz9BT5Gg4b5i2QXRKWNHkrU7_IM4h6_EZNORaIIUuWvKW9sN9YJS-TcrawDYqrCPfVcFptM]--></g></svg>